<?xml version="1.0" encoding="UTF-8" standalone="no"?>
<!DOCTYPE svg PUBLIC "-//W3C//DTD SVG 1.1//EN"
 "http://www.w3.org/Graphics/SVG/1.1/DTD/svg11.dtd">
<!-- Generated by graphviz version 2.40.1 (20161225.0304)
 -->
<!-- Title: G Pages: 1 -->
<svg width="301pt" height="404pt"
 viewBox="0.00 0.00 300.56 404.00" xmlns="http://www.w3.org/2000/svg" xmlns:xlink="http://www.w3.org/1999/xlink">
<g id="graph0" class="graph" transform="scale(1 1) rotate(0) translate(4 400)">
<title>G</title>
<polygon fill="#ffffff" stroke="transparent" points="-4,4 -4,-400 296.5632,-400 296.5632,4 -4,4"/>
<!-- 0 -->
<g id="node1" class="node">
<title>0</title>
<ellipse fill="none" stroke="#000000" cx="199.5632" cy="-378" rx="27" ry="18"/>
<text text-anchor="middle" x="199.5632" y="-374.3" font-family="Times-Roman" font-size="14.00" fill="#000000">a</text>
</g>
<!-- 3 -->
<g id="node4" class="node">
<title>3</title>
<ellipse fill="none" stroke="#000000" cx="34.5632" cy="-306" rx="27" ry="18"/>
<text text-anchor="middle" x="34.5632" y="-302.3" font-family="Times-Roman" font-size="14.00" fill="#000000">d</text>
</g>
<!-- 0&#45;&gt;3 -->
<g id="edge2" class="edge">
<title>0&#45;&gt;3</title>
<path fill="none" stroke="#000000" d="M176.7001,-368.0677C151.8122,-357.2501 110.8458,-339.4275 75.5632,-324 72.5716,-322.6919 69.4581,-321.3286 66.3432,-319.9633"/>
<polygon fill="#000000" stroke="#000000" points="67.6783,-316.7271 57.1146,-315.915 64.8662,-323.1374 67.6783,-316.7271"/>
</g>
<!-- 7 -->
<g id="node8" class="node">
<title>7</title>
<ellipse fill="none" stroke="#000000" cx="89.5632" cy="-162" rx="27" ry="18"/>
<text text-anchor="middle" x="89.5632" y="-158.3" font-family="Times-Roman" font-size="14.00" fill="#000000">h</text>
</g>
<!-- 0&#45;&gt;7 -->
<g id="edge1" class="edge">
<title>0&#45;&gt;7</title>
<path fill="none" stroke="#000000" d="M185.1242,-362.6469C164.8158,-340.1709 128.1157,-296.1661 108.5632,-252 99.8628,-232.3472 95.0591,-208.4834 92.4595,-190.2682"/>
<polygon fill="#000000" stroke="#000000" points="95.9206,-189.741 91.1709,-180.2705 88.9781,-190.6359 95.9206,-189.741"/>
</g>
<!-- 1 -->
<g id="node2" class="node">
<title>1</title>
<ellipse fill="none" stroke="#000000" cx="51.5632" cy="-90" rx="27" ry="18"/>
<text text-anchor="middle" x="51.5632" y="-86.3" font-family="Times-Roman" font-size="14.00" fill="#000000">b</text>
</g>
<!-- 1&#45;&gt;3 -->
<g id="edge4" class="edge">
<title>1&#45;&gt;3</title>
<path fill="none" stroke="#000000" d="M50.1351,-108.1451C47.1719,-145.7945 40.3368,-232.6409 36.7897,-277.7103"/>
<polygon fill="#000000" stroke="#000000" points="33.2788,-277.7117 35.9833,-287.9555 40.2573,-278.261 33.2788,-277.7117"/>
</g>
<!-- 5 -->
<g id="node6" class="node">
<title>5</title>
<ellipse fill="none" stroke="#000000" cx="78.5632" cy="-18" rx="27" ry="18"/>
<text text-anchor="middle" x="78.5632" y="-14.3" font-family="Times-Roman" font-size="14.00" fill="#000000">f</text>
</g>
<!-- 1&#45;&gt;5 -->
<g id="edge3" class="edge">
<title>1&#45;&gt;5</title>
<path fill="none" stroke="#000000" d="M58.2373,-72.2022C61.3108,-64.0064 65.0248,-54.1024 68.4327,-45.0145"/>
<polygon fill="#000000" stroke="#000000" points="71.7316,-46.1853 71.9658,-35.593 65.1773,-43.7274 71.7316,-46.1853"/>
</g>
<!-- 2 -->
<g id="node3" class="node">
<title>2</title>
<ellipse fill="none" stroke="#000000" cx="199.5632" cy="-162" rx="27" ry="18"/>
<text text-anchor="middle" x="199.5632" y="-158.3" font-family="Times-Roman" font-size="14.00" fill="#000000">c</text>
</g>
<!-- 2&#45;&gt;0 -->
<g id="edge6" class="edge">
<title>2&#45;&gt;0</title>
<path fill="none" stroke="#000000" d="M199.5632,-180.1451C199.5632,-217.7945 199.5632,-304.6409 199.5632,-349.7103"/>
<polygon fill="#000000" stroke="#000000" points="196.0633,-349.9554 199.5632,-359.9555 203.0633,-349.9555 196.0633,-349.9554"/>
</g>
<!-- 4 -->
<g id="node5" class="node">
<title>4</title>
<ellipse fill="none" stroke="#000000" cx="199.5632" cy="-90" rx="27" ry="18"/>
<text text-anchor="middle" x="199.5632" y="-86.3" font-family="Times-Roman" font-size="14.00" fill="#000000">e</text>
</g>
<!-- 2&#45;&gt;4 -->
<g id="edge5" class="edge">
<title>2&#45;&gt;4</title>
<path fill="none" stroke="#000000" d="M199.5632,-143.8314C199.5632,-136.131 199.5632,-126.9743 199.5632,-118.4166"/>
<polygon fill="#000000" stroke="#000000" points="203.0633,-118.4132 199.5632,-108.4133 196.0633,-118.4133 203.0633,-118.4132"/>
</g>
<!-- 6 -->
<g id="node7" class="node">
<title>6</title>
<ellipse fill="none" stroke="#000000" cx="144.5632" cy="-234" rx="27" ry="18"/>
<text text-anchor="middle" x="144.5632" y="-230.3" font-family="Times-Roman" font-size="14.00" fill="#000000">g</text>
</g>
<!-- 3&#45;&gt;6 -->
<g id="edge7" class="edge">
<title>3&#45;&gt;6</title>
<path fill="none" stroke="#000000" d="M53.9758,-293.2936C71.3052,-281.9507 96.8949,-265.201 116.4604,-252.3946"/>
<polygon fill="#000000" stroke="#000000" points="118.5244,-255.2267 124.9746,-246.8216 114.6908,-249.3698 118.5244,-255.2267"/>
</g>
<!-- 4&#45;&gt;0 -->
<g id="edge9" class="edge">
<title>4&#45;&gt;0</title>
<path fill="none" stroke="#000000" d="M213.6861,-105.7156C221.8166,-115.8532 231.2532,-129.7653 235.5632,-144 257.6636,-216.9929 228.8159,-307.1022 211.2638,-351.1713"/>
<polygon fill="#000000" stroke="#000000" points="207.9526,-350.0214 207.3972,-360.6017 214.4293,-352.677 207.9526,-350.0214"/>
</g>
<!-- 4&#45;&gt;6 -->
<g id="edge8" class="edge">
<title>4&#45;&gt;6</title>
<path fill="none" stroke="#000000" d="M186.4642,-106.0847C178.7191,-116.3613 169.3279,-130.2898 163.5632,-144 155.2326,-163.8124 150.4099,-187.6679 147.7091,-205.8395"/>
<polygon fill="#000000" stroke="#000000" points="144.2329,-205.4279 146.3537,-215.8083 151.1691,-206.3711 144.2329,-205.4279"/>
</g>
<!-- 5&#45;&gt;0 -->
<g id="edge12" class="edge">
<title>5&#45;&gt;0</title>
<path fill="none" stroke="#000000" d="M105.0341,-21.5985C138.4945,-27.2915 196.4386,-41.0829 235.5632,-72 272.7118,-101.3557 292.5632,-114.6526 292.5632,-162 292.5632,-234 292.5632,-234 292.5632,-234 292.5632,-284.3813 251.8944,-331.1007 224.3442,-356.9697"/>
<polygon fill="#000000" stroke="#000000" points="221.657,-354.6831 216.6208,-364.0044 226.3707,-359.8582 221.657,-354.6831"/>
</g>
<!-- 5&#45;&gt;3 -->
<g id="edge10" class="edge">
<title>5&#45;&gt;3</title>
<path fill="none" stroke="#000000" d="M57.2956,-29.5319C42.5596,-38.8336 24.1108,-53.4156 15.5632,-72 -16.1959,-141.0512 8.3939,-233.6645 24.0928,-278.876"/>
<polygon fill="#000000" stroke="#000000" points="20.892,-280.3185 27.5687,-288.5448 27.4792,-277.9503 20.892,-280.3185"/>
</g>
<!-- 5&#45;&gt;7 -->
<g id="edge11" class="edge">
<title>5&#45;&gt;7</title>
<path fill="none" stroke="#000000" d="M82.2096,-35.9159C84.1751,-46.3878 86.4251,-59.8878 87.5632,-72 89.4973,-92.5852 89.9666,-115.9294 89.9684,-133.6837"/>
<polygon fill="#000000" stroke="#000000" points="86.4685,-133.6675 89.9206,-143.6842 93.4685,-133.7011 86.4685,-133.6675"/>
</g>
<!-- 6&#45;&gt;2 -->
<g id="edge13" class="edge">
<title>6&#45;&gt;2</title>
<path fill="none" stroke="#000000" d="M157.0435,-217.6621C164.0756,-208.4564 172.9978,-196.7764 180.8515,-186.4953"/>
<polygon fill="#000000" stroke="#000000" points="183.8431,-188.3446 187.1322,-178.2733 178.2804,-184.0953 183.8431,-188.3446"/>
</g>
<!-- 6&#45;&gt;7 -->
<g id="edge14" class="edge">
<title>6&#45;&gt;7</title>
<path fill="none" stroke="#000000" d="M132.0828,-217.6621C125.0507,-208.4564 116.1285,-196.7764 108.2749,-186.4953"/>
<polygon fill="#000000" stroke="#000000" points="110.8459,-184.0953 101.9941,-178.2733 105.2832,-188.3446 110.8459,-184.0953"/>
</g>
<!-- 7&#45;&gt;1 -->
<g id="edge15" class="edge">
<title>7&#45;&gt;1</title>
<path fill="none" stroke="#000000" d="M80.5577,-144.937C76.0804,-136.4537 70.568,-126.0092 65.5561,-116.513"/>
<polygon fill="#000000" stroke="#000000" points="68.531,-114.6509 60.768,-107.4407 62.3403,-117.9182 68.531,-114.6509"/>
</g>
</g>
</svg>
